<svg width="45" height="45" viewBox="0 0 45 45" fill="black" xmlns="http://www.w3.org/2000/svg">
<g clip-path="url(#clip0_42_97)">
<path d="M29.0625 26.25H27.5812L27.0562 25.7437C28.8937 23.6062 30 20.8312 30 17.8125C30 11.0812 24.5437 5.625 17.8125 5.625C11.0812 5.625 5.625 11.0812 5.625 17.8125C5.625 24.5437 11.0812 30 17.8125 30C20.8312 30 23.6062 28.8937 25.7437 27.0562L26.25 27.5812V29.0625L35.625 38.4187L38.4187 35.625L29.0625 26.25ZM17.8125 26.25C13.1437 26.25 9.375 22.4812 9.375 17.8125C9.375 13.1437 13.1437 9.375 17.8125 9.375C22.4812 9.375 26.25 13.1437 26.25 17.8125C26.25 22.4812 22.4812 26.25 17.8125 26.25Z" fill="black"/>
</g>
<defs>
<clipPath id="clip0_42_97">
<rect width="45" height="45" fill="black"/>
</clipPath>
</defs>
</svg>
